<svg width="184" height="78" viewBox="0 0 184 78" fill="none" xmlns="http://www.w3.org/2000/svg">
<rect x="2" y="2" width="180" height="74" rx="8" stroke="white" stroke-width="4"/>
<path d="M34.4 55.576C31.808 55.576 29.536 54.872 27.584 53.464C25.664 52.056 24.176 50.056 23.12 47.464C22.064 44.84 21.536 41.752 21.536 38.2C21.536 34.616 22.064 31.528 23.12 28.936C24.176 26.344 25.664 24.344 27.584 22.936C29.536 21.528 31.808 20.824 34.4 20.824C37.024 20.824 39.296 21.528 41.216 22.936C43.136 24.344 44.624 26.344 45.68 28.936C46.736 31.528 47.264 34.616 47.264 38.2C47.264 41.752 46.736 44.84 45.68 47.464C44.624 50.056 43.136 52.056 41.216 53.464C39.296 54.872 37.024 55.576 34.4 55.576ZM26.72 38.2C26.72 39.992 26.88 41.624 27.2 43.096C27.52 44.568 27.968 45.848 28.544 46.936L36.944 26.152C36.144 25.768 35.296 25.576 34.4 25.576C32.16 25.576 30.32 26.712 28.88 28.984C27.44 31.224 26.72 34.296 26.72 38.2ZM34.4 50.872C35.904 50.872 37.232 50.36 38.384 49.336C39.536 48.312 40.432 46.856 41.072 44.968C41.744 43.048 42.08 40.792 42.08 38.2C42.08 36.408 41.92 34.776 41.6 33.304C41.28 31.832 40.832 30.568 40.256 29.512L31.856 50.296C32.656 50.68 33.504 50.872 34.4 50.872ZM63.4213 55.576C61.2133 55.576 59.2133 55.16 57.4213 54.328C55.6293 53.496 54.2053 52.28 53.1493 50.68C52.0933 49.048 51.5173 47.08 51.4213 44.776H56.5093C56.6053 46.536 57.2453 47.992 58.4293 49.144C59.6453 50.296 61.3093 50.872 63.4213 50.872C65.5013 50.872 67.1333 50.36 68.3173 49.336C69.5013 48.312 70.0933 46.904 70.0933 45.112C70.0933 43.128 69.3733 41.672 67.9333 40.744C66.4933 39.816 64.7333 39.352 62.6533 39.352H59.6773V34.84H62.2213C64.1093 34.84 65.6613 34.456 66.8773 33.688C68.0933 32.92 68.7013 31.72 68.7013 30.088C68.7013 28.68 68.2373 27.576 67.3093 26.776C66.3813 25.944 65.0693 25.528 63.3733 25.528C61.6453 25.528 60.2693 25.992 59.2453 26.92C58.2213 27.848 57.6453 29.032 57.5173 30.472H52.4773C52.5733 28.552 53.0853 26.872 54.0133 25.432C54.9413 23.992 56.2053 22.872 57.8053 22.072C59.4053 21.24 61.2613 20.824 63.3733 20.824C65.6773 20.824 67.5973 21.224 69.1333 22.024C70.6693 22.792 71.8213 23.832 72.5893 25.144C73.3573 26.456 73.7413 27.928 73.7413 29.56C73.7413 31.224 73.2453 32.664 72.2533 33.88C71.2933 35.064 70.1253 35.928 68.7493 36.472V36.76C70.6053 37.272 72.1253 38.232 73.3093 39.64C74.5253 41.016 75.1333 42.872 75.1333 45.208C75.1333 47.096 74.6693 48.84 73.7413 50.44C72.8453 52.008 71.5173 53.256 69.7573 54.184C68.0293 55.112 65.9173 55.576 63.4213 55.576ZM91.9625 55.288C90.7785 55.288 89.7705 54.904 88.9385 54.136C88.1065 53.336 87.6905 52.376 87.6905 51.256C87.6905 50.136 88.1065 49.192 88.9385 48.424C89.7705 47.656 90.7785 47.272 91.9625 47.272C93.1785 47.272 94.1865 47.656 94.9865 48.424C95.8185 49.192 96.2345 50.136 96.2345 51.256C96.2345 52.376 95.8185 53.336 94.9865 54.136C94.1865 54.904 93.1785 55.288 91.9625 55.288ZM91.9625 36.664C90.7785 36.664 89.7705 36.28 88.9385 35.512C88.1065 34.712 87.6905 33.752 87.6905 32.632C87.6905 31.512 88.1065 30.568 88.9385 29.8C89.7705 29.032 90.7785 28.648 91.9625 28.648C93.1785 28.648 94.1865 29.032 94.9865 29.8C95.8185 30.568 96.2345 31.512 96.2345 32.632C96.2345 33.752 95.8185 34.712 94.9865 35.512C94.1865 36.28 93.1785 36.664 91.9625 36.664ZM120.744 55.576C118.152 55.576 115.88 54.872 113.928 53.464C112.008 52.056 110.52 50.056 109.464 47.464C108.408 44.84 107.88 41.752 107.88 38.2C107.88 34.616 108.408 31.528 109.464 28.936C110.52 26.344 112.008 24.344 113.928 22.936C115.88 21.528 118.152 20.824 120.744 20.824C123.368 20.824 125.64 21.528 127.56 22.936C129.48 24.344 130.968 26.344 132.024 28.936C133.08 31.528 133.608 34.616 133.608 38.2C133.608 41.752 133.08 44.84 132.024 47.464C130.968 50.056 129.48 52.056 127.56 53.464C125.64 54.872 123.368 55.576 120.744 55.576ZM113.064 38.2C113.064 39.992 113.224 41.624 113.544 43.096C113.864 44.568 114.312 45.848 114.888 46.936L123.288 26.152C122.488 25.768 121.64 25.576 120.744 25.576C118.504 25.576 116.664 26.712 115.224 28.984C113.784 31.224 113.064 34.296 113.064 38.2ZM120.744 50.872C122.248 50.872 123.576 50.36 124.728 49.336C125.88 48.312 126.776 46.856 127.416 44.968C128.088 43.048 128.424 40.792 128.424 38.2C128.424 36.408 128.264 34.776 127.944 33.304C127.624 31.832 127.176 30.568 126.6 29.512L118.2 50.296C119 50.68 119.848 50.872 120.744 50.872ZM149.525 55.576C146.933 55.576 144.661 54.872 142.709 53.464C140.789 52.056 139.301 50.056 138.245 47.464C137.189 44.84 136.661 41.752 136.661 38.2C136.661 34.616 137.189 31.528 138.245 28.936C139.301 26.344 140.789 24.344 142.709 22.936C144.661 21.528 146.933 20.824 149.525 20.824C152.149 20.824 154.421 21.528 156.341 22.936C158.261 24.344 159.749 26.344 160.805 28.936C161.861 31.528 162.389 34.616 162.389 38.2C162.389 41.752 161.861 44.84 160.805 47.464C159.749 50.056 158.261 52.056 156.341 53.464C154.421 54.872 152.149 55.576 149.525 55.576ZM141.845 38.2C141.845 39.992 142.005 41.624 142.325 43.096C142.645 44.568 143.093 45.848 143.669 46.936L152.069 26.152C151.269 25.768 150.421 25.576 149.525 25.576C147.285 25.576 145.445 26.712 144.005 28.984C142.565 31.224 141.845 34.296 141.845 38.2ZM149.525 50.872C151.029 50.872 152.357 50.36 153.509 49.336C154.661 48.312 155.557 46.856 156.197 44.968C156.869 43.048 157.205 40.792 157.205 38.2C157.205 36.408 157.045 34.776 156.725 33.304C156.405 31.832 155.957 30.568 155.381 29.512L146.981 50.296C147.781 50.68 148.629 50.872 149.525 50.872Z" fill="white"/>
</svg>
